<?xml version="1.0" encoding="UTF-8"?>
<svg id="Layer_2" data-name="Layer 2" xmlns="http://www.w3.org/2000/svg" xmlns:xlink="http://www.w3.org/1999/xlink" viewBox="0 0 560.07 620.83">
  <defs>
    <style>
      .cls-1 {
        fill: #00bfb3;
      }

      .cls-2 {
        clip-path: url(#clippath-1);
      }

      .cls-3 {
        clip-path: url(#clippath-3);
      }

      .cls-4 {
        clip-path: url(#clippath-2);
      }

      .cls-5 {
        fill: #fff;
      }

      .cls-6 {
        fill: none;
        stroke: #00bfb3;
        stroke-miterlimit: 10;
      }

      .cls-7 {
        clip-path: url(#clippath);
      }
    </style>
    <clipPath id="clippath">
      <rect class="cls-1" y="296.44" width="274.43" height="21.87"/>
    </clipPath>
    <clipPath id="clippath-1">
      <rect class="cls-1" x="0" y="296.44" width="274.43" height="21.87"/>
    </clipPath>
    <clipPath id="clippath-2">
      <rect class="cls-1" x="285.64" y="138.12" width="274.43" height="21.87"/>
    </clipPath>
    <clipPath id="clippath-3">
      <rect class="cls-1" x="285.64" y="138.12" width="274.43" height="21.87"/>
    </clipPath>
  </defs>
  <g id="Layer_1-2" data-name="Layer 1">
    <g>
      <g>
        <path class="cls-5" d="M34.32,0v15.55h8.45c23.21,0,38.26,2.03,45.14,6.09,6.87,4.06,11.38,11.38,13.53,21.98,2.14,10.6,3.21,34.15,3.21,70.67v224.86c0,38.32-1.07,62.72-3.21,73.2-2.15,10.48-6.99,18.21-14.54,23.16-7.56,4.96-21.13,7.44-40.74,7.44h-11.83v15.55h206.26v-15.55h-11.83c-20.52,0-34.44-2.7-41.76-8.12-7.33-5.41-11.89-13.69-13.69-24.85-1.81-11.16-2.71-34.77-2.71-70.84V114.29c0-38.09,1.18-62.21,3.55-72.36,2.37-10.14,7.04-17.07,14.03-20.8,6.98-3.72,21.64-5.58,43.96-5.58h8.45V0H34.32Z"/>
        <path class="cls-5" d="M315.93,0v15.55h12.17c23.21,0,38.26,2.03,45.14,6.09,6.87,4.06,11.33,11.38,13.36,21.98,2.03,10.6,3.04,34.15,3.04,70.67v224.86c0,38.32-1.01,62.72-3.04,73.2-2.03,10.48-6.82,18.21-14.37,23.16-7.56,4.96-21.02,7.44-40.41,7.44h-15.89v15.55h208.62v-15.55h-10.48c-20.51,0-34.49-2.7-41.93-8.12-7.44-5.41-12-13.69-13.69-24.85-1.69-11.16-2.54-34.77-2.54-70.84V114.29c0-38.09,1.18-62.21,3.55-72.36,2.37-10.14,7.04-17.07,14.03-20.8,6.98-3.72,21.75-5.58,44.3-5.58h6.76V0h-208.62Z"/>
      </g>
      <g>
        <rect class="cls-1" y="296.44" width="274.43" height="21.87"/>
        <g class="cls-7">
          <g>
            <rect class="cls-1" x="0" y="296.44" width="274.43" height="21.87"/>
            <g class="cls-2">
              <rect class="cls-1" x="0" y="296.44" width="3.96" height="21.87"/>
              <rect class="cls-1" x="3.96" y="296.44" width="3.96" height="21.87"/>
              <rect class="cls-1" x="7.93" y="296.44" width="3.96" height="21.87"/>
              <rect class="cls-1" x="11.89" y="296.44" width="3.96" height="21.87"/>
              <rect class="cls-1" x="15.86" y="296.44" width="3.96" height="21.87"/>
              <rect class="cls-1" x="19.82" y="296.44" width="3.96" height="21.87"/>
              <rect class="cls-1" x="23.79" y="296.44" width="3.96" height="21.87"/>
              <rect class="cls-1" x="27.75" y="296.44" width="3.96" height="21.87"/>
              <rect class="cls-1" x="31.72" y="296.44" width="3.96" height="21.87"/>
              <rect class="cls-1" x="35.68" y="296.44" width="3.96" height="21.87"/>
              <rect class="cls-1" x="39.64" y="296.44" width="3.96" height="21.87"/>
              <rect class="cls-1" x="43.61" y="296.44" width="3.96" height="21.87"/>
              <rect class="cls-1" x="47.57" y="296.44" width="3.96" height="21.87"/>
              <rect class="cls-1" x="51.54" y="296.44" width="3.96" height="21.87"/>
              <rect class="cls-1" x="55.5" y="296.44" width="3.96" height="21.87"/>
              <rect class="cls-1" x="59.47" y="296.44" width="3.96" height="21.87"/>
              <rect class="cls-1" x="63.43" y="296.44" width="3.96" height="21.87"/>
              <rect class="cls-1" x="67.4" y="296.44" width="3.96" height="21.87"/>
              <rect class="cls-1" x="71.36" y="296.44" width="3.96" height="21.87"/>
              <rect class="cls-1" x="75.32" y="296.44" width="3.96" height="21.87"/>
              <rect class="cls-1" x="79.29" y="296.44" width="3.96" height="21.87"/>
              <rect class="cls-1" x="83.25" y="296.44" width="3.96" height="21.87"/>
              <rect class="cls-1" x="87.22" y="296.44" width="3.96" height="21.87"/>
              <rect class="cls-1" x="91.18" y="296.44" width="3.96" height="21.87"/>
              <rect class="cls-1" x="95.15" y="296.44" width="3.96" height="21.87"/>
              <rect class="cls-1" x="99.11" y="296.44" width="3.96" height="21.87"/>
              <rect class="cls-1" x="103.08" y="296.44" width="3.96" height="21.87"/>
              <rect class="cls-1" x="107.04" y="296.44" width="3.96" height="21.87"/>
              <rect class="cls-1" x="111" y="296.44" width="3.96" height="21.87"/>
              <rect class="cls-1" x="114.97" y="296.44" width="3.96" height="21.87"/>
              <rect class="cls-1" x="118.93" y="296.44" width="3.96" height="21.87"/>
              <rect class="cls-1" x="122.9" y="296.44" width="3.96" height="21.87"/>
              <rect class="cls-1" x="126.86" y="296.44" width="3.96" height="21.87"/>
              <rect class="cls-1" x="130.83" y="296.44" width="3.96" height="21.87"/>
              <rect class="cls-1" x="134.79" y="296.44" width="3.96" height="21.87"/>
              <rect class="cls-1" x="138.76" y="296.44" width="1.63" height="21.87"/>
              <rect class="cls-1" x="140.39" y="296.44" width="1.63" height="21.87"/>
              <rect class="cls-1" x="142.03" y="296.44" width="1.63" height="21.87"/>
              <rect class="cls-1" x="143.66" y="296.44" width="1.63" height="21.87"/>
              <rect class="cls-1" x="145.29" y="296.44" width="1.63" height="21.87"/>
              <rect class="cls-1" x="146.93" y="296.44" width="1.63" height="21.87"/>
              <rect class="cls-1" x="148.56" y="296.44" width="1.63" height="21.87"/>
              <rect class="cls-1" x="150.2" y="296.44" width="1.63" height="21.87"/>
              <rect class="cls-1" x="151.83" y="296.44" width="1.63" height="21.87"/>
              <rect class="cls-1" x="153.47" y="296.44" width="1.63" height="21.87"/>
              <rect class="cls-1" x="155.1" y="296.44" width="1.63" height="21.87"/>
              <rect class="cls-1" x="156.74" y="296.44" width="1.63" height="21.87"/>
              <rect class="cls-1" x="158.37" y="296.44" width="1.63" height="21.87"/>
              <rect class="cls-1" x="160.01" y="296.44" width="1.63" height="21.87"/>
              <rect class="cls-1" x="161.64" y="296.44" width="1.63" height="21.87"/>
              <rect class="cls-1" x="163.28" y="296.44" width="1.63" height="21.87"/>
              <rect class="cls-1" x="164.91" y="296.44" width="1.63" height="21.87"/>
              <rect class="cls-1" x="166.54" y="296.44" width="1.63" height="21.87"/>
              <rect class="cls-1" x="168.18" y="296.44" width="1.63" height="21.87"/>
              <rect class="cls-1" x="169.81" y="296.44" width="1.63" height="21.87"/>
              <rect class="cls-1" x="171.45" y="296.44" width="1.63" height="21.87"/>
              <rect class="cls-1" x="173.08" y="296.44" width="1.63" height="21.87"/>
              <rect class="cls-1" x="174.72" y="296.44" width="1.63" height="21.87"/>
              <rect class="cls-1" x="176.35" y="296.44" width="1.63" height="21.87"/>
              <rect class="cls-1" x="177.99" y="296.44" width="1.63" height="21.87"/>
              <rect class="cls-1" x="179.62" y="296.44" width="1.63" height="21.87"/>
              <rect class="cls-1" x="181.26" y="296.44" width="1.63" height="21.87"/>
              <rect class="cls-1" x="182.89" y="296.44" width="1.63" height="21.87"/>
              <rect class="cls-1" x="184.53" y="296.44" width="1.63" height="21.87"/>
              <rect class="cls-1" x="186.16" y="296.44" width="1.63" height="21.87"/>
              <rect class="cls-1" x="187.79" y="296.44" width="1.63" height="21.87"/>
              <rect class="cls-1" x="189.43" y="296.44" width="1.63" height="21.87"/>
              <rect class="cls-1" x="191.06" y="296.44" width="1.63" height="21.87"/>
              <rect class="cls-1" x="192.7" y="296.44" width="1.63" height="21.87"/>
              <rect class="cls-1" x="194.33" y="296.44" width="1.63" height="21.87"/>
              <rect class="cls-1" x="195.97" y="296.44" width="1.63" height="21.87"/>
              <rect class="cls-1" x="197.6" y="296.44" width="1.63" height="21.87"/>
              <rect class="cls-1" x="199.24" y="296.44" width="1.63" height="21.87"/>
              <rect class="cls-1" x="200.87" y="296.44" width="1.63" height="21.87"/>
              <rect class="cls-1" x="202.51" y="296.44" width="1.63" height="21.87"/>
              <rect class="cls-1" x="204.14" y="296.44" width="1.63" height="21.87"/>
              <rect class="cls-1" x="205.78" y="296.44" width="1.63" height="21.87"/>
              <rect class="cls-1" x="207.41" y="296.44" width="1.63" height="21.87"/>
              <rect class="cls-1" x="209.04" y="296.44" width="1.63" height="21.87"/>
              <rect class="cls-1" x="210.68" y="296.44" width="1.63" height="21.87"/>
              <rect class="cls-1" x="212.31" y="296.44" width="1.63" height="21.87"/>
              <rect class="cls-1" x="213.95" y="296.44" width="1.63" height="21.87"/>
              <rect class="cls-1" x="215.58" y="296.44" width="1.63" height="21.87"/>
              <rect class="cls-1" x="217.22" y="296.44" width="1.63" height="21.87"/>
              <rect class="cls-1" x="218.85" y="296.44" width="1.63" height="21.87"/>
              <rect class="cls-1" x="220.49" y="296.44" width="1.63" height="21.87"/>
              <rect class="cls-1" x="222.12" y="296.44" width="1.63" height="21.87"/>
              <rect class="cls-1" x="223.76" y="296.44" width="1.63" height="21.87"/>
              <rect class="cls-1" x="225.39" y="296.44" width="1.63" height="21.87"/>
              <rect class="cls-1" x="227.03" y="296.44" width="1.63" height="21.87"/>
              <rect class="cls-1" x="228.66" y="296.44" width="1.63" height="21.87"/>
              <rect class="cls-1" x="230.29" y="296.44" width="1.63" height="21.87"/>
              <rect class="cls-1" x="231.93" y="296.44" width="1.63" height="21.87"/>
              <rect class="cls-1" x="233.56" y="296.44" width="1.63" height="21.87"/>
              <rect class="cls-1" x="235.2" y="296.44" width="1.63" height="21.87"/>
              <rect class="cls-1" x="236.83" y="296.44" width="1.63" height="21.87"/>
              <rect class="cls-1" x="238.47" y="296.44" width="1.63" height="21.87"/>
              <rect class="cls-1" x="240.1" y="296.44" width="1.63" height="21.87"/>
              <rect class="cls-1" x="241.74" y="296.44" width="1.63" height="21.87"/>
              <rect class="cls-1" x="243.37" y="296.44" width="1.63" height="21.87"/>
              <rect class="cls-1" x="245.01" y="296.44" width="1.63" height="21.87"/>
              <rect class="cls-1" x="246.64" y="296.44" width="1.63" height="21.87"/>
              <rect class="cls-1" x="248.28" y="296.44" width="1.63" height="21.87"/>
              <rect class="cls-1" x="249.91" y="296.44" width="1.63" height="21.87"/>
              <rect class="cls-1" x="251.54" y="296.44" width="1.63" height="21.87"/>
              <rect class="cls-1" x="253.18" y="296.44" width="1.63" height="21.87"/>
              <rect class="cls-1" x="254.81" y="296.44" width="1.63" height="21.87"/>
              <rect class="cls-1" x="256.45" y="296.44" width="1.63" height="21.87"/>
              <rect class="cls-1" x="258.08" y="296.44" width="1.63" height="21.87"/>
              <rect class="cls-1" x="259.72" y="296.44" width="1.63" height="21.87"/>
              <rect class="cls-1" x="261.35" y="296.44" width="1.63" height="21.87"/>
              <rect class="cls-1" x="262.99" y="296.44" width="1.63" height="21.87"/>
              <rect class="cls-1" x="264.62" y="296.44" width="1.63" height="21.87"/>
              <rect class="cls-1" x="266.26" y="296.44" width="1.63" height="21.87"/>
              <rect class="cls-1" x="267.89" y="296.44" width="1.63" height="21.87"/>
              <rect class="cls-1" x="269.52" y="296.44" width="1.63" height="21.87"/>
              <rect class="cls-1" x="271.16" y="296.44" width="1.63" height="21.87"/>
              <rect class="cls-1" x="272.79" y="296.44" width="1.63" height="21.87"/>
            </g>
          </g>
        </g>
      </g>
      <g>
        <rect class="cls-1" x="285.64" y="138.12" width="274.43" height="21.87"/>
        <g class="cls-4">
          <g>
            <rect class="cls-1" x="285.64" y="138.12" width="274.43" height="21.87"/>
            <g class="cls-3">
              <rect class="cls-1" x="285.64" y="138.12" width="3.96" height="21.87"/>
              <rect class="cls-1" x="289.61" y="138.12" width="3.96" height="21.87"/>
              <rect class="cls-1" x="293.57" y="138.12" width="3.96" height="21.87"/>
              <rect class="cls-1" x="297.54" y="138.12" width="3.96" height="21.87"/>
              <rect class="cls-1" x="301.5" y="138.12" width="3.96" height="21.87"/>
              <rect class="cls-1" x="305.46" y="138.12" width="3.96" height="21.87"/>
              <rect class="cls-1" x="309.43" y="138.12" width="3.96" height="21.87"/>
              <rect class="cls-1" x="313.39" y="138.12" width="3.96" height="21.87"/>
              <rect class="cls-1" x="317.36" y="138.12" width="3.96" height="21.87"/>
              <rect class="cls-1" x="321.32" y="138.12" width="3.96" height="21.87"/>
              <rect class="cls-1" x="325.29" y="138.12" width="3.96" height="21.87"/>
              <rect class="cls-1" x="329.25" y="138.12" width="3.96" height="21.87"/>
              <rect class="cls-1" x="333.22" y="138.12" width="3.96" height="21.87"/>
              <rect class="cls-1" x="337.18" y="138.12" width="3.96" height="21.87"/>
              <rect class="cls-1" x="341.14" y="138.12" width="3.96" height="21.87"/>
              <rect class="cls-1" x="345.11" y="138.12" width="3.96" height="21.87"/>
              <rect class="cls-1" x="349.07" y="138.12" width="3.96" height="21.87"/>
              <rect class="cls-1" x="353.04" y="138.12" width="3.96" height="21.87"/>
              <rect class="cls-1" x="357" y="138.12" width="3.96" height="21.87"/>
              <rect class="cls-1" x="360.97" y="138.12" width="3.96" height="21.87"/>
              <rect class="cls-1" x="364.93" y="138.12" width="3.96" height="21.87"/>
              <rect class="cls-1" x="368.9" y="138.12" width="3.96" height="21.87"/>
              <rect class="cls-1" x="372.86" y="138.12" width="3.96" height="21.87"/>
              <rect class="cls-1" x="376.82" y="138.12" width="3.96" height="21.87"/>
              <rect class="cls-1" x="380.79" y="138.12" width="3.96" height="21.87"/>
              <rect class="cls-1" x="384.75" y="138.12" width="3.96" height="21.87"/>
              <rect class="cls-1" x="388.72" y="138.12" width="3.96" height="21.87"/>
              <rect class="cls-1" x="392.68" y="138.12" width="3.96" height="21.87"/>
              <rect class="cls-1" x="396.65" y="138.12" width="3.96" height="21.87"/>
              <rect class="cls-1" x="400.61" y="138.12" width="3.96" height="21.87"/>
              <rect class="cls-1" x="404.58" y="138.12" width="3.96" height="21.87"/>
              <rect class="cls-1" x="408.54" y="138.12" width="3.96" height="21.87"/>
              <rect class="cls-1" x="412.51" y="138.12" width="3.96" height="21.87"/>
              <rect class="cls-1" x="416.47" y="138.12" width="3.96" height="21.87"/>
              <rect class="cls-1" x="420.43" y="138.12" width="3.96" height="21.87"/>
              <rect class="cls-1" x="424.4" y="138.12" width="1.63" height="21.87"/>
              <rect class="cls-1" x="426.03" y="138.12" width="1.63" height="21.87"/>
              <rect class="cls-1" x="427.67" y="138.12" width="1.63" height="21.87"/>
              <rect class="cls-1" x="429.3" y="138.12" width="1.63" height="21.87"/>
              <rect class="cls-1" x="430.94" y="138.12" width="1.63" height="21.87"/>
              <rect class="cls-1" x="432.57" y="138.12" width="1.63" height="21.87"/>
              <rect class="cls-1" x="434.21" y="138.12" width="1.63" height="21.87"/>
              <rect class="cls-1" x="435.84" y="138.12" width="1.63" height="21.87"/>
              <rect class="cls-1" x="437.48" y="138.12" width="1.63" height="21.87"/>
              <rect class="cls-1" x="439.11" y="138.12" width="1.63" height="21.87"/>
              <rect class="cls-1" x="440.74" y="138.12" width="1.63" height="21.87"/>
              <rect class="cls-1" x="442.38" y="138.12" width="1.63" height="21.87"/>
              <rect class="cls-1" x="444.01" y="138.12" width="1.63" height="21.87"/>
              <rect class="cls-1" x="445.65" y="138.12" width="1.63" height="21.87"/>
              <rect class="cls-1" x="447.28" y="138.12" width="1.63" height="21.87"/>
              <rect class="cls-1" x="448.92" y="138.12" width="1.63" height="21.87"/>
              <rect class="cls-1" x="450.55" y="138.12" width="1.63" height="21.87"/>
              <rect class="cls-1" x="452.19" y="138.12" width="1.63" height="21.87"/>
              <rect class="cls-1" x="453.82" y="138.12" width="1.63" height="21.87"/>
              <rect class="cls-1" x="455.46" y="138.12" width="1.63" height="21.87"/>
              <rect class="cls-1" x="457.09" y="138.12" width="1.63" height="21.87"/>
              <rect class="cls-1" x="458.73" y="138.12" width="1.63" height="21.87"/>
              <rect class="cls-1" x="460.36" y="138.12" width="1.63" height="21.87"/>
              <rect class="cls-1" x="461.99" y="138.12" width="1.63" height="21.87"/>
              <rect class="cls-1" x="463.63" y="138.12" width="1.63" height="21.87"/>
              <rect class="cls-1" x="465.26" y="138.12" width="1.63" height="21.87"/>
              <rect class="cls-1" x="466.9" y="138.12" width="1.63" height="21.87"/>
              <rect class="cls-1" x="468.53" y="138.12" width="1.63" height="21.87"/>
              <rect class="cls-1" x="470.17" y="138.12" width="1.63" height="21.87"/>
              <rect class="cls-1" x="471.8" y="138.12" width="1.63" height="21.87"/>
              <rect class="cls-1" x="473.44" y="138.12" width="1.63" height="21.87"/>
              <rect class="cls-1" x="475.07" y="138.12" width="1.63" height="21.87"/>
              <rect class="cls-1" x="476.71" y="138.12" width="1.63" height="21.87"/>
              <rect class="cls-1" x="478.34" y="138.12" width="1.63" height="21.87"/>
              <rect class="cls-1" x="479.98" y="138.12" width="1.63" height="21.87"/>
              <rect class="cls-1" x="481.61" y="138.12" width="1.63" height="21.87"/>
              <rect class="cls-1" x="483.24" y="138.12" width="1.63" height="21.87"/>
              <rect class="cls-1" x="484.88" y="138.12" width="1.63" height="21.87"/>
              <rect class="cls-1" x="486.51" y="138.12" width="1.63" height="21.87"/>
              <rect class="cls-1" x="488.15" y="138.12" width="1.63" height="21.87"/>
              <rect class="cls-1" x="489.78" y="138.12" width="1.63" height="21.87"/>
              <rect class="cls-1" x="491.42" y="138.12" width="1.63" height="21.87"/>
              <rect class="cls-1" x="493.05" y="138.12" width="1.63" height="21.87"/>
              <rect class="cls-1" x="494.69" y="138.12" width="1.63" height="21.87"/>
              <rect class="cls-1" x="496.32" y="138.12" width="1.63" height="21.87"/>
              <rect class="cls-1" x="497.96" y="138.12" width="1.63" height="21.87"/>
              <rect class="cls-1" x="499.59" y="138.12" width="1.63" height="21.87"/>
              <rect class="cls-1" x="501.23" y="138.12" width="1.63" height="21.87"/>
              <rect class="cls-1" x="502.86" y="138.12" width="1.63" height="21.87"/>
              <rect class="cls-1" x="504.49" y="138.12" width="1.63" height="21.87"/>
              <rect class="cls-1" x="506.13" y="138.12" width="1.63" height="21.87"/>
              <rect class="cls-1" x="507.76" y="138.12" width="1.63" height="21.87"/>
              <rect class="cls-1" x="509.4" y="138.12" width="1.63" height="21.87"/>
              <rect class="cls-1" x="511.03" y="138.12" width="1.63" height="21.87"/>
              <rect class="cls-1" x="512.67" y="138.12" width="1.63" height="21.87"/>
              <rect class="cls-1" x="514.3" y="138.12" width="1.63" height="21.87"/>
              <rect class="cls-1" x="515.94" y="138.12" width="1.63" height="21.87"/>
              <rect class="cls-1" x="517.57" y="138.12" width="1.63" height="21.87"/>
              <rect class="cls-1" x="519.21" y="138.12" width="1.63" height="21.87"/>
              <rect class="cls-1" x="520.84" y="138.12" width="1.63" height="21.87"/>
              <rect class="cls-1" x="522.48" y="138.12" width="1.63" height="21.87"/>
              <rect class="cls-1" x="524.11" y="138.12" width="1.63" height="21.87"/>
              <rect class="cls-1" x="525.74" y="138.12" width="1.63" height="21.87"/>
              <rect class="cls-1" x="527.38" y="138.12" width="1.63" height="21.87"/>
              <rect class="cls-1" x="529.01" y="138.12" width="1.63" height="21.87"/>
              <rect class="cls-1" x="530.65" y="138.12" width="1.63" height="21.87"/>
              <rect class="cls-1" x="532.28" y="138.12" width="1.63" height="21.87"/>
              <rect class="cls-1" x="533.92" y="138.12" width="1.63" height="21.87"/>
              <rect class="cls-1" x="535.55" y="138.12" width="1.63" height="21.87"/>
              <rect class="cls-1" x="537.19" y="138.12" width="1.63" height="21.87"/>
              <rect class="cls-1" x="538.82" y="138.12" width="1.63" height="21.87"/>
              <rect class="cls-1" x="540.46" y="138.12" width="1.63" height="21.87"/>
              <rect class="cls-1" x="542.09" y="138.12" width="1.63" height="21.87"/>
              <rect class="cls-1" x="543.73" y="138.12" width="1.63" height="21.87"/>
              <rect class="cls-1" x="545.36" y="138.12" width="1.63" height="21.87"/>
              <rect class="cls-1" x="546.99" y="138.12" width="1.63" height="21.87"/>
              <rect class="cls-1" x="548.63" y="138.12" width="1.63" height="21.87"/>
              <rect class="cls-1" x="550.26" y="138.12" width="1.63" height="21.87"/>
              <rect class="cls-1" x="551.9" y="138.12" width="1.63" height="21.87"/>
              <rect class="cls-1" x="553.53" y="138.12" width="1.63" height="21.87"/>
              <rect class="cls-1" x="555.17" y="138.12" width="1.63" height="21.87"/>
              <rect class="cls-1" x="556.8" y="138.12" width="1.63" height="21.87"/>
              <rect class="cls-1" x="558.44" y="138.12" width="1.63" height="21.87"/>
            </g>
          </g>
        </g>
      </g>
      <g>
        <path class="cls-5" d="M159.56,612.24h-10.32v-30.55h10.64c3.12,0,5.8.61,8.05,1.83,2.24,1.22,3.96,2.96,5.16,5.24,1.2,2.27,1.8,4.99,1.8,8.17s-.6,5.92-1.81,8.2c-1.21,2.29-2.95,4.04-5.24,5.27-2.28,1.23-5.04,1.84-8.28,1.84ZM154.05,608.21h5.24c2.43,0,4.45-.44,6.05-1.32,1.61-.88,2.81-2.16,3.61-3.83.8-1.68,1.2-3.72,1.2-6.14s-.4-4.43-1.19-6.1c-.79-1.67-1.97-2.94-3.54-3.8-1.57-.87-3.51-1.3-5.84-1.3h-5.54v22.49Z"/>
        <path class="cls-5" d="M180.49,612.24v-22.91h4.5v3.64h.25c.44-1.23,1.21-2.21,2.31-2.92s2.36-1.07,3.76-1.07c.29,0,.64,0,1.03.03.4.02.71.04.94.08v4.27c-.19-.05-.52-.11-1-.17s-.95-.1-1.43-.1c-1.1,0-2.08.22-2.93.66-.86.44-1.53,1.05-2.03,1.83-.5.78-.75,1.67-.75,2.66v13.99h-4.65Z"/>
        <path class="cls-5" d="M199.68,585.8c-.81,0-1.5-.26-2.08-.78-.58-.52-.86-1.15-.86-1.87s.29-1.37.86-1.89c.58-.52,1.27-.78,2.08-.78s1.5.26,2.08.78c.58.52.86,1.15.86,1.87s-.29,1.36-.86,1.89c-.58.52-1.27.78-2.08.78ZM197.33,612.24v-22.91h4.65v22.91h-4.65Z"/>
        <path class="cls-5" d="M228.68,589.33l-8.67,22.91h-4.98l-8.68-22.91h5l6.05,17.63h.25l6.04-17.63h5Z"/>
        <path class="cls-5" d="M243.36,612.7c-2.36,0-4.38-.48-6.08-1.45-1.7-.97-3-2.34-3.92-4.1-.92-1.76-1.38-3.83-1.38-6.21s.46-4.41,1.38-6.2c.92-1.79,2.2-3.19,3.86-4.19,1.65-1,3.59-1.51,5.81-1.51,1.35,0,2.66.21,3.92.64,1.27.43,2.4,1.1,3.41,2.01,1.01.92,1.8,2.1,2.38,3.56.58,1.46.87,3.22.87,5.3v1.58h-19v-3.34h14.44c0-1.17-.25-2.21-.75-3.12-.5-.91-1.2-1.63-2.09-2.16-.9-.53-1.95-.79-3.15-.79-1.31,0-2.45.31-3.42.92-.97.61-1.72,1.41-2.24,2.39s-.79,2.04-.79,3.18v2.61c0,1.53.28,2.83.85,3.91.56,1.07,1.36,1.89,2.37,2.45,1.02.56,2.2.84,3.56.84.88,0,1.69-.12,2.41-.37.73-.24,1.35-.61,1.88-1.1.53-.49.93-1.09,1.21-1.8l4.4.76c-.35,1.24-.98,2.33-1.89,3.26-.91.93-2.04,1.65-3.41,2.16s-2.92.77-4.66.77Z"/>
        <path class="cls-5" d="M263.45,598.64v13.6h-4.65v-22.91h4.47v3.73h.3c.55-1.21,1.41-2.19,2.59-2.92,1.18-.74,2.66-1.1,4.46-1.1,1.63,0,3.06.33,4.28.98,1.22.65,2.17,1.62,2.85,2.9.67,1.28,1.01,2.87,1.01,4.76v14.57h-4.65v-14.04c0-1.66-.45-2.96-1.35-3.9-.9-.94-2.14-1.41-3.72-1.41-1.08,0-2.04.22-2.87.67-.83.45-1.49,1.1-1.98,1.96s-.72,1.9-.72,3.11Z"/>
        <path class="cls-5" d="M296.95,612.24v-30.55h11.67c2.26,0,4.13.36,5.62,1.07,1.48.71,2.59,1.67,3.33,2.88s1.1,2.57,1.1,4.08c0,1.27-.24,2.34-.73,3.21-.49.87-1.14,1.57-1.95,2.09-.81.52-1.71.9-2.68,1.14v.3c1.06.05,2.09.38,3.1.98,1.01.6,1.85,1.45,2.51,2.56s1,2.45,1,4.03-.38,2.96-1.14,4.2c-.76,1.24-1.94,2.22-3.52,2.94-1.59.72-3.62,1.08-6.08,1.08h-12.22ZM301.76,594.91h6.44c1.08,0,2.05-.2,2.92-.6.87-.4,1.56-.96,2.07-1.68.51-.72.77-1.57.77-2.56,0-1.26-.46-2.32-1.38-3.18-.92-.86-2.34-1.28-4.25-1.28h-6.57v9.29ZM301.76,608.29h6.94c2.3,0,3.95-.43,4.95-1.28,1-.85,1.49-1.92,1.49-3.21,0-.96-.25-1.85-.76-2.66-.51-.81-1.23-1.45-2.17-1.92-.94-.48-2.05-.72-3.34-.72h-7.11v9.78Z"/>
        <path class="cls-5" d="M328.19,620.83c-.7,0-1.33-.05-1.9-.16-.57-.1-1-.22-1.28-.34l1.12-3.65c.85.22,1.61.31,2.27.28.66-.03,1.25-.27,1.77-.72.51-.45.97-1.18,1.36-2.19l.58-1.52-8.75-23.21h4.98l6.05,17.78h.25l6.05-17.78h5l-9.85,25.97c-.46,1.19-1.04,2.21-1.74,3.04-.71.83-1.55,1.45-2.52,1.87-.98.42-2.11.63-3.39.63Z"/>
        <path class="cls-5" d="M364.74,612.24h-5.1l11.47-30.55h5.56l11.47,30.55h-5.1l-9.01-25h-.25l-9.03,25ZM365.6,600.28h16.56v3.88h-16.56v-3.88Z"/>
        <path class="cls-5" d="M397.53,581.7v30.55h-4.81v-30.55h4.81Z"/>
        <path class="cls-5" d="M407.22,612.53c-.85,0-1.58-.29-2.19-.87-.61-.58-.92-1.29-.92-2.11s.31-1.51.92-2.1c.61-.58,1.34-.87,2.19-.87s1.58.29,2.19.87c.61.58.92,1.28.92,2.1,0,.55-.14,1.05-.43,1.5-.29.45-.66.81-1.13,1.08s-.99.4-1.56.4Z"/>
      </g>
      <g>
        <path class="cls-5" d="M78.79,508v31.27h-6.9v-31.27h6.9Z"/>
        <path class="cls-5" d="M120.74,508v31.27h-5.96l-14.2-19.68h-.24v19.68h-6.9v-31.27h6.05l14.08,19.67h.29v-19.67h6.87Z"/>
        <path class="cls-5" d="M134.16,513.45v-5.45h26.8v5.45h-9.99v25.82h-6.82v-25.82h-9.99Z"/>
        <path class="cls-5" d="M174.36,539.27v-31.27h21.99v5.45h-15.09v7.45h13.96v5.45h-13.96v7.47h15.15v5.45h-22.05Z"/>
        <path class="cls-5" d="M210.82,539.27v-31.27h6.9v25.82h13.99v5.45h-20.89Z"/>
        <path class="cls-5" d="M245.25,539.27v-31.27h6.9v25.82h13.99v5.45h-20.89Z"/>
        <path class="cls-5" d="M286.58,508v31.27h-6.9v-31.27h6.9Z"/>
        <path class="cls-5" d="M322.88,518.1c-.22-.74-.54-1.4-.94-1.98-.4-.58-.89-1.06-1.47-1.47s-1.24-.71-1.98-.92c-.74-.21-1.55-.32-2.45-.32-1.67,0-3.13.4-4.39,1.19-1.26.79-2.24,1.95-2.94,3.46-.7,1.51-1.05,3.36-1.05,5.54s.35,4.03,1.04,5.56c.69,1.53,1.67,2.69,2.93,3.49,1.26.8,2.76,1.2,4.48,1.2,1.56,0,2.9-.27,4.01-.8,1.11-.53,1.96-1.29,2.55-2.27.59-.98.88-2.13.88-3.46l1.4.2h-8.41v-4.98h13.65v3.94c0,2.75-.61,5.11-1.82,7.08-1.21,1.97-2.88,3.49-5,4.55-2.12,1.06-4.56,1.6-7.3,1.6-3.06,0-5.75-.65-8.06-1.95-2.32-1.3-4.12-3.14-5.41-5.54-1.29-2.4-1.94-5.24-1.94-8.54,0-2.54.39-4.8,1.16-6.79s1.85-3.68,3.24-5.06,3.01-2.44,4.86-3.16c1.85-.72,3.85-1.08,6.01-1.08,1.85,0,3.57.26,5.16.77,1.59.51,3.01,1.24,4.25,2.18,1.24.94,2.25,2.05,3.04,3.34s1.29,2.71,1.51,4.25h-7.01Z"/>
        <path class="cls-5" d="M344.34,539.27v-31.27h21.99v5.45h-15.09v7.45h13.96v5.45h-13.96v7.47h15.15v5.45h-22.05Z"/>
        <path class="cls-5" d="M408.09,508v31.27h-5.96l-14.2-19.68h-.24v19.68h-6.9v-31.27h6.05l14.08,19.67h.29v-19.67h6.87Z"/>
        <path class="cls-5" d="M451.54,518.94h-6.98c-.13-.87-.39-1.64-.78-2.31-.39-.68-.9-1.26-1.51-1.73-.62-.48-1.33-.84-2.13-1.1-.8-.26-1.67-.38-2.6-.38-1.69,0-3.16.4-4.41,1.2s-2.23,1.96-2.92,3.48c-.69,1.52-1.04,3.37-1.04,5.54s.35,4.1,1.04,5.62c.7,1.52,1.67,2.66,2.92,3.44,1.25.77,2.7,1.16,4.35,1.16.92,0,1.78-.12,2.57-.35.79-.23,1.49-.58,2.11-1.03.62-.45,1.13-1,1.54-1.66.41-.65.69-1.39.85-2.23l6.98.03c-.18,1.44-.63,2.82-1.35,4.15-.72,1.33-1.68,2.51-2.88,3.56-1.21,1.04-2.64,1.87-4.3,2.47-1.66.61-3.54.91-5.63.91-2.91,0-5.51-.63-7.8-1.89-2.29-1.26-4.09-3.09-5.42-5.48s-1.98-5.29-1.98-8.69.67-6.31,2.01-8.7,3.15-4.22,5.45-5.47c2.29-1.26,4.88-1.88,7.74-1.88,1.89,0,3.65.25,5.27.76,1.62.51,3.06,1.25,4.31,2.22s2.28,2.16,3.07,3.57c.79,1.4,1.3,3.01,1.52,4.82Z"/>
        <path class="cls-5" d="M465.47,539.27v-31.27h21.99v5.45h-15.09v7.45h13.96v5.45h-13.96v7.47h15.15v5.45h-22.05Z"/>
      </g>
      <line class="cls-6" x1="34.32" y1="489.66" x2="524.56" y2="489.66"/>
      <line class="cls-6" x1="34.32" y1="559.27" x2="524.56" y2="559.27"/>
    </g>
  </g>
</svg>