<?xml version="1.0" encoding="UTF-8"?>
<svg id="Layer_2" data-name="Layer 2" xmlns="http://www.w3.org/2000/svg" xmlns:xlink="http://www.w3.org/1999/xlink" viewBox="0 0 560.07 458.5">
  <defs>
    <style>
      .cls-1 {
        fill: #00bfb3;
      }

      .cls-2 {
        clip-path: url(#clippath-1);
      }

      .cls-3 {
        clip-path: url(#clippath-3);
      }

      .cls-4 {
        clip-path: url(#clippath-2);
      }

      .cls-5 {
        fill: #023e63;
      }

      .cls-6 {
        clip-path: url(#clippath);
      }
    </style>
    <clipPath id="clippath">
      <rect class="cls-1" y="296.44" width="274.43" height="21.87"/>
    </clipPath>
    <clipPath id="clippath-1">
      <rect class="cls-1" x="0" y="296.44" width="274.43" height="21.87"/>
    </clipPath>
    <clipPath id="clippath-2">
      <rect class="cls-1" x="285.64" y="138.12" width="274.43" height="21.87"/>
    </clipPath>
    <clipPath id="clippath-3">
      <rect class="cls-1" x="285.64" y="138.12" width="274.43" height="21.87"/>
    </clipPath>
  </defs>
  <g id="Layer_1-2" data-name="Layer 1">
    <g>
      <g>
        <path class="cls-5" d="M34.92,0v15.55h8.45c23.21,0,38.26,2.03,45.14,6.09,6.87,4.06,11.38,11.38,13.53,21.98,2.14,10.6,3.21,34.15,3.21,70.67v224.86c0,38.32-1.07,62.72-3.21,73.2-2.15,10.48-6.99,18.21-14.54,23.16-7.56,4.96-21.13,7.44-40.74,7.44h-11.83v15.55h206.26v-15.55h-11.83c-20.52,0-34.44-2.7-41.76-8.12-7.33-5.41-11.89-13.69-13.69-24.85-1.81-11.16-2.71-34.77-2.71-70.84V114.29c0-38.09,1.18-62.21,3.55-72.36,2.37-10.14,7.04-17.07,14.03-20.8,6.98-3.72,21.64-5.58,43.96-5.58h8.45V0H34.92Z"/>
        <path class="cls-5" d="M316.53,0v15.55h12.17c23.21,0,38.26,2.03,45.14,6.09,6.87,4.06,11.33,11.38,13.36,21.98,2.03,10.6,3.04,34.15,3.04,70.67v224.86c0,38.32-1.01,62.72-3.04,73.2-2.03,10.48-6.82,18.21-14.37,23.16-7.56,4.96-21.02,7.44-40.41,7.44h-15.89v15.55h208.62v-15.55h-10.48c-20.51,0-34.49-2.7-41.93-8.12-7.44-5.41-12-13.69-13.69-24.85-1.69-11.16-2.54-34.77-2.54-70.84V114.29c0-38.09,1.18-62.21,3.55-72.36,2.37-10.14,7.04-17.07,14.03-20.8,6.98-3.72,21.75-5.58,44.3-5.58h6.76V0h-208.62Z"/>
      </g>
      <g>
        <rect class="cls-1" y="296.44" width="274.43" height="21.87"/>
        <g class="cls-6">
          <g>
            <rect class="cls-1" x="0" y="296.44" width="274.43" height="21.87"/>
            <g class="cls-2">
              <rect class="cls-1" x="0" y="296.44" width="3.96" height="21.87"/>
              <rect class="cls-1" x="3.96" y="296.44" width="3.96" height="21.87"/>
              <rect class="cls-1" x="7.93" y="296.44" width="3.96" height="21.87"/>
              <rect class="cls-1" x="11.89" y="296.44" width="3.96" height="21.87"/>
              <rect class="cls-1" x="15.86" y="296.44" width="3.96" height="21.87"/>
              <rect class="cls-1" x="19.82" y="296.44" width="3.96" height="21.87"/>
              <rect class="cls-1" x="23.79" y="296.44" width="3.96" height="21.87"/>
              <rect class="cls-1" x="27.75" y="296.44" width="3.96" height="21.87"/>
              <rect class="cls-1" x="31.72" y="296.44" width="3.96" height="21.87"/>
              <rect class="cls-1" x="35.68" y="296.44" width="3.96" height="21.87"/>
              <rect class="cls-1" x="39.64" y="296.44" width="3.96" height="21.87"/>
              <rect class="cls-1" x="43.61" y="296.44" width="3.96" height="21.87"/>
              <rect class="cls-1" x="47.57" y="296.44" width="3.96" height="21.87"/>
              <rect class="cls-1" x="51.54" y="296.44" width="3.96" height="21.87"/>
              <rect class="cls-1" x="55.5" y="296.44" width="3.96" height="21.87"/>
              <rect class="cls-1" x="59.47" y="296.44" width="3.96" height="21.87"/>
              <rect class="cls-1" x="63.43" y="296.44" width="3.96" height="21.87"/>
              <rect class="cls-1" x="67.4" y="296.44" width="3.96" height="21.87"/>
              <rect class="cls-1" x="71.36" y="296.44" width="3.96" height="21.87"/>
              <rect class="cls-1" x="75.32" y="296.44" width="3.96" height="21.87"/>
              <rect class="cls-1" x="79.29" y="296.44" width="3.96" height="21.87"/>
              <rect class="cls-1" x="83.25" y="296.44" width="3.96" height="21.87"/>
              <rect class="cls-1" x="87.22" y="296.44" width="3.96" height="21.87"/>
              <rect class="cls-1" x="91.18" y="296.44" width="3.96" height="21.87"/>
              <rect class="cls-1" x="95.15" y="296.44" width="3.96" height="21.87"/>
              <rect class="cls-1" x="99.11" y="296.44" width="3.96" height="21.87"/>
              <rect class="cls-1" x="103.08" y="296.44" width="3.96" height="21.87"/>
              <rect class="cls-1" x="107.04" y="296.44" width="3.96" height="21.87"/>
              <rect class="cls-1" x="111" y="296.44" width="3.96" height="21.87"/>
              <rect class="cls-1" x="114.97" y="296.44" width="3.96" height="21.87"/>
              <rect class="cls-1" x="118.93" y="296.44" width="3.96" height="21.87"/>
              <rect class="cls-1" x="122.9" y="296.44" width="3.96" height="21.87"/>
              <rect class="cls-1" x="126.86" y="296.44" width="3.96" height="21.87"/>
              <rect class="cls-1" x="130.83" y="296.44" width="3.96" height="21.87"/>
              <rect class="cls-1" x="134.79" y="296.44" width="3.96" height="21.87"/>
              <rect class="cls-1" x="138.76" y="296.44" width="1.63" height="21.87"/>
              <rect class="cls-1" x="140.39" y="296.44" width="1.63" height="21.87"/>
              <rect class="cls-1" x="142.03" y="296.44" width="1.63" height="21.87"/>
              <rect class="cls-1" x="143.66" y="296.44" width="1.63" height="21.87"/>
              <rect class="cls-1" x="145.29" y="296.44" width="1.63" height="21.87"/>
              <rect class="cls-1" x="146.93" y="296.44" width="1.63" height="21.87"/>
              <rect class="cls-1" x="148.56" y="296.44" width="1.63" height="21.87"/>
              <rect class="cls-1" x="150.2" y="296.44" width="1.63" height="21.87"/>
              <rect class="cls-1" x="151.83" y="296.44" width="1.63" height="21.87"/>
              <rect class="cls-1" x="153.47" y="296.44" width="1.63" height="21.87"/>
              <rect class="cls-1" x="155.1" y="296.44" width="1.63" height="21.87"/>
              <rect class="cls-1" x="156.74" y="296.44" width="1.63" height="21.87"/>
              <rect class="cls-1" x="158.37" y="296.44" width="1.63" height="21.87"/>
              <rect class="cls-1" x="160.01" y="296.44" width="1.63" height="21.87"/>
              <rect class="cls-1" x="161.64" y="296.44" width="1.63" height="21.87"/>
              <rect class="cls-1" x="163.28" y="296.44" width="1.63" height="21.87"/>
              <rect class="cls-1" x="164.91" y="296.44" width="1.63" height="21.87"/>
              <rect class="cls-1" x="166.54" y="296.44" width="1.63" height="21.87"/>
              <rect class="cls-1" x="168.18" y="296.44" width="1.63" height="21.87"/>
              <rect class="cls-1" x="169.81" y="296.44" width="1.63" height="21.87"/>
              <rect class="cls-1" x="171.45" y="296.44" width="1.63" height="21.87"/>
              <rect class="cls-1" x="173.08" y="296.44" width="1.63" height="21.87"/>
              <rect class="cls-1" x="174.72" y="296.44" width="1.63" height="21.87"/>
              <rect class="cls-1" x="176.35" y="296.44" width="1.63" height="21.87"/>
              <rect class="cls-1" x="177.99" y="296.44" width="1.63" height="21.87"/>
              <rect class="cls-1" x="179.62" y="296.44" width="1.63" height="21.87"/>
              <rect class="cls-1" x="181.26" y="296.44" width="1.63" height="21.87"/>
              <rect class="cls-1" x="182.89" y="296.44" width="1.63" height="21.87"/>
              <rect class="cls-1" x="184.53" y="296.44" width="1.63" height="21.87"/>
              <rect class="cls-1" x="186.16" y="296.44" width="1.63" height="21.87"/>
              <rect class="cls-1" x="187.79" y="296.44" width="1.63" height="21.87"/>
              <rect class="cls-1" x="189.43" y="296.44" width="1.63" height="21.87"/>
              <rect class="cls-1" x="191.06" y="296.44" width="1.63" height="21.87"/>
              <rect class="cls-1" x="192.7" y="296.44" width="1.63" height="21.87"/>
              <rect class="cls-1" x="194.33" y="296.44" width="1.63" height="21.87"/>
              <rect class="cls-1" x="195.97" y="296.44" width="1.63" height="21.87"/>
              <rect class="cls-1" x="197.6" y="296.44" width="1.63" height="21.87"/>
              <rect class="cls-1" x="199.24" y="296.44" width="1.63" height="21.87"/>
              <rect class="cls-1" x="200.87" y="296.44" width="1.63" height="21.87"/>
              <rect class="cls-1" x="202.51" y="296.44" width="1.63" height="21.87"/>
              <rect class="cls-1" x="204.14" y="296.44" width="1.63" height="21.87"/>
              <rect class="cls-1" x="205.78" y="296.44" width="1.63" height="21.87"/>
              <rect class="cls-1" x="207.41" y="296.44" width="1.63" height="21.87"/>
              <rect class="cls-1" x="209.04" y="296.44" width="1.63" height="21.87"/>
              <rect class="cls-1" x="210.68" y="296.44" width="1.63" height="21.87"/>
              <rect class="cls-1" x="212.31" y="296.44" width="1.63" height="21.87"/>
              <rect class="cls-1" x="213.95" y="296.44" width="1.63" height="21.87"/>
              <rect class="cls-1" x="215.58" y="296.44" width="1.63" height="21.87"/>
              <rect class="cls-1" x="217.22" y="296.44" width="1.63" height="21.87"/>
              <rect class="cls-1" x="218.85" y="296.44" width="1.63" height="21.87"/>
              <rect class="cls-1" x="220.49" y="296.44" width="1.63" height="21.87"/>
              <rect class="cls-1" x="222.12" y="296.44" width="1.63" height="21.87"/>
              <rect class="cls-1" x="223.76" y="296.44" width="1.63" height="21.87"/>
              <rect class="cls-1" x="225.39" y="296.44" width="1.63" height="21.87"/>
              <rect class="cls-1" x="227.03" y="296.44" width="1.63" height="21.87"/>
              <rect class="cls-1" x="228.66" y="296.44" width="1.63" height="21.87"/>
              <rect class="cls-1" x="230.29" y="296.44" width="1.63" height="21.87"/>
              <rect class="cls-1" x="231.93" y="296.44" width="1.63" height="21.87"/>
              <rect class="cls-1" x="233.56" y="296.44" width="1.63" height="21.87"/>
              <rect class="cls-1" x="235.2" y="296.44" width="1.63" height="21.87"/>
              <rect class="cls-1" x="236.83" y="296.44" width="1.63" height="21.87"/>
              <rect class="cls-1" x="238.47" y="296.44" width="1.63" height="21.87"/>
              <rect class="cls-1" x="240.1" y="296.44" width="1.63" height="21.87"/>
              <rect class="cls-1" x="241.74" y="296.44" width="1.63" height="21.87"/>
              <rect class="cls-1" x="243.37" y="296.44" width="1.63" height="21.87"/>
              <rect class="cls-1" x="245.01" y="296.44" width="1.63" height="21.87"/>
              <rect class="cls-1" x="246.64" y="296.44" width="1.63" height="21.87"/>
              <rect class="cls-1" x="248.28" y="296.44" width="1.63" height="21.87"/>
              <rect class="cls-1" x="249.91" y="296.44" width="1.63" height="21.87"/>
              <rect class="cls-1" x="251.54" y="296.44" width="1.63" height="21.87"/>
              <rect class="cls-1" x="253.18" y="296.44" width="1.63" height="21.87"/>
              <rect class="cls-1" x="254.81" y="296.44" width="1.63" height="21.87"/>
              <rect class="cls-1" x="256.45" y="296.44" width="1.63" height="21.87"/>
              <rect class="cls-1" x="258.08" y="296.44" width="1.63" height="21.87"/>
              <rect class="cls-1" x="259.72" y="296.44" width="1.63" height="21.87"/>
              <rect class="cls-1" x="261.35" y="296.44" width="1.63" height="21.87"/>
              <rect class="cls-1" x="262.99" y="296.44" width="1.63" height="21.87"/>
              <rect class="cls-1" x="264.62" y="296.44" width="1.63" height="21.87"/>
              <rect class="cls-1" x="266.26" y="296.44" width="1.63" height="21.87"/>
              <rect class="cls-1" x="267.89" y="296.44" width="1.63" height="21.87"/>
              <rect class="cls-1" x="269.52" y="296.44" width="1.63" height="21.87"/>
              <rect class="cls-1" x="271.16" y="296.44" width="1.63" height="21.87"/>
              <rect class="cls-1" x="272.79" y="296.44" width="1.63" height="21.87"/>
            </g>
          </g>
        </g>
      </g>
      <g>
        <rect class="cls-1" x="285.64" y="138.12" width="274.43" height="21.87"/>
        <g class="cls-4">
          <g>
            <rect class="cls-1" x="285.64" y="138.12" width="274.43" height="21.87"/>
            <g class="cls-3">
              <rect class="cls-1" x="285.64" y="138.12" width="3.96" height="21.87"/>
              <rect class="cls-1" x="289.61" y="138.12" width="3.96" height="21.87"/>
              <rect class="cls-1" x="293.57" y="138.12" width="3.96" height="21.87"/>
              <rect class="cls-1" x="297.54" y="138.12" width="3.96" height="21.87"/>
              <rect class="cls-1" x="301.5" y="138.12" width="3.96" height="21.87"/>
              <rect class="cls-1" x="305.46" y="138.12" width="3.96" height="21.87"/>
              <rect class="cls-1" x="309.43" y="138.12" width="3.96" height="21.87"/>
              <rect class="cls-1" x="313.39" y="138.12" width="3.96" height="21.87"/>
              <rect class="cls-1" x="317.36" y="138.12" width="3.96" height="21.87"/>
              <rect class="cls-1" x="321.32" y="138.12" width="3.96" height="21.87"/>
              <rect class="cls-1" x="325.29" y="138.12" width="3.96" height="21.87"/>
              <rect class="cls-1" x="329.25" y="138.12" width="3.96" height="21.87"/>
              <rect class="cls-1" x="333.22" y="138.12" width="3.96" height="21.87"/>
              <rect class="cls-1" x="337.18" y="138.12" width="3.96" height="21.87"/>
              <rect class="cls-1" x="341.14" y="138.12" width="3.96" height="21.87"/>
              <rect class="cls-1" x="345.11" y="138.12" width="3.96" height="21.87"/>
              <rect class="cls-1" x="349.07" y="138.12" width="3.96" height="21.87"/>
              <rect class="cls-1" x="353.04" y="138.12" width="3.96" height="21.87"/>
              <rect class="cls-1" x="357" y="138.12" width="3.96" height="21.87"/>
              <rect class="cls-1" x="360.97" y="138.12" width="3.96" height="21.87"/>
              <rect class="cls-1" x="364.93" y="138.12" width="3.96" height="21.87"/>
              <rect class="cls-1" x="368.9" y="138.12" width="3.96" height="21.87"/>
              <rect class="cls-1" x="372.86" y="138.12" width="3.96" height="21.87"/>
              <rect class="cls-1" x="376.82" y="138.12" width="3.96" height="21.87"/>
              <rect class="cls-1" x="380.79" y="138.12" width="3.96" height="21.87"/>
              <rect class="cls-1" x="384.75" y="138.12" width="3.96" height="21.87"/>
              <rect class="cls-1" x="388.72" y="138.12" width="3.96" height="21.87"/>
              <rect class="cls-1" x="392.68" y="138.12" width="3.96" height="21.87"/>
              <rect class="cls-1" x="396.65" y="138.12" width="3.96" height="21.87"/>
              <rect class="cls-1" x="400.61" y="138.12" width="3.96" height="21.87"/>
              <rect class="cls-1" x="404.58" y="138.12" width="3.96" height="21.87"/>
              <rect class="cls-1" x="408.54" y="138.12" width="3.96" height="21.87"/>
              <rect class="cls-1" x="412.51" y="138.12" width="3.96" height="21.87"/>
              <rect class="cls-1" x="416.47" y="138.12" width="3.96" height="21.87"/>
              <rect class="cls-1" x="420.43" y="138.12" width="3.96" height="21.87"/>
              <rect class="cls-1" x="424.4" y="138.12" width="1.63" height="21.87"/>
              <rect class="cls-1" x="426.03" y="138.12" width="1.63" height="21.87"/>
              <rect class="cls-1" x="427.67" y="138.12" width="1.63" height="21.87"/>
              <rect class="cls-1" x="429.3" y="138.12" width="1.63" height="21.87"/>
              <rect class="cls-1" x="430.94" y="138.12" width="1.63" height="21.87"/>
              <rect class="cls-1" x="432.57" y="138.12" width="1.63" height="21.87"/>
              <rect class="cls-1" x="434.21" y="138.12" width="1.63" height="21.87"/>
              <rect class="cls-1" x="435.84" y="138.12" width="1.63" height="21.87"/>
              <rect class="cls-1" x="437.48" y="138.12" width="1.63" height="21.87"/>
              <rect class="cls-1" x="439.11" y="138.12" width="1.63" height="21.87"/>
              <rect class="cls-1" x="440.74" y="138.12" width="1.63" height="21.87"/>
              <rect class="cls-1" x="442.38" y="138.12" width="1.63" height="21.87"/>
              <rect class="cls-1" x="444.01" y="138.12" width="1.63" height="21.87"/>
              <rect class="cls-1" x="445.65" y="138.12" width="1.63" height="21.87"/>
              <rect class="cls-1" x="447.28" y="138.12" width="1.63" height="21.87"/>
              <rect class="cls-1" x="448.92" y="138.12" width="1.63" height="21.87"/>
              <rect class="cls-1" x="450.55" y="138.12" width="1.63" height="21.87"/>
              <rect class="cls-1" x="452.19" y="138.12" width="1.63" height="21.87"/>
              <rect class="cls-1" x="453.82" y="138.12" width="1.63" height="21.87"/>
              <rect class="cls-1" x="455.46" y="138.12" width="1.63" height="21.87"/>
              <rect class="cls-1" x="457.09" y="138.12" width="1.63" height="21.87"/>
              <rect class="cls-1" x="458.73" y="138.12" width="1.63" height="21.87"/>
              <rect class="cls-1" x="460.36" y="138.12" width="1.63" height="21.87"/>
              <rect class="cls-1" x="461.99" y="138.12" width="1.63" height="21.87"/>
              <rect class="cls-1" x="463.63" y="138.12" width="1.63" height="21.87"/>
              <rect class="cls-1" x="465.26" y="138.12" width="1.63" height="21.87"/>
              <rect class="cls-1" x="466.9" y="138.12" width="1.63" height="21.87"/>
              <rect class="cls-1" x="468.53" y="138.12" width="1.63" height="21.87"/>
              <rect class="cls-1" x="470.17" y="138.12" width="1.63" height="21.87"/>
              <rect class="cls-1" x="471.8" y="138.12" width="1.63" height="21.87"/>
              <rect class="cls-1" x="473.44" y="138.12" width="1.63" height="21.87"/>
              <rect class="cls-1" x="475.07" y="138.12" width="1.63" height="21.87"/>
              <rect class="cls-1" x="476.71" y="138.12" width="1.63" height="21.87"/>
              <rect class="cls-1" x="478.34" y="138.12" width="1.63" height="21.87"/>
              <rect class="cls-1" x="479.98" y="138.12" width="1.63" height="21.87"/>
              <rect class="cls-1" x="481.61" y="138.12" width="1.63" height="21.87"/>
              <rect class="cls-1" x="483.24" y="138.12" width="1.63" height="21.87"/>
              <rect class="cls-1" x="484.88" y="138.12" width="1.63" height="21.87"/>
              <rect class="cls-1" x="486.51" y="138.12" width="1.63" height="21.87"/>
              <rect class="cls-1" x="488.15" y="138.12" width="1.63" height="21.87"/>
              <rect class="cls-1" x="489.78" y="138.12" width="1.63" height="21.87"/>
              <rect class="cls-1" x="491.42" y="138.12" width="1.63" height="21.87"/>
              <rect class="cls-1" x="493.05" y="138.12" width="1.63" height="21.87"/>
              <rect class="cls-1" x="494.69" y="138.12" width="1.63" height="21.87"/>
              <rect class="cls-1" x="496.32" y="138.12" width="1.63" height="21.87"/>
              <rect class="cls-1" x="497.96" y="138.12" width="1.63" height="21.87"/>
              <rect class="cls-1" x="499.59" y="138.12" width="1.63" height="21.87"/>
              <rect class="cls-1" x="501.23" y="138.12" width="1.63" height="21.87"/>
              <rect class="cls-1" x="502.86" y="138.12" width="1.63" height="21.87"/>
              <rect class="cls-1" x="504.49" y="138.12" width="1.63" height="21.87"/>
              <rect class="cls-1" x="506.13" y="138.12" width="1.63" height="21.87"/>
              <rect class="cls-1" x="507.76" y="138.12" width="1.63" height="21.87"/>
              <rect class="cls-1" x="509.4" y="138.12" width="1.63" height="21.87"/>
              <rect class="cls-1" x="511.03" y="138.12" width="1.63" height="21.87"/>
              <rect class="cls-1" x="512.67" y="138.12" width="1.63" height="21.87"/>
              <rect class="cls-1" x="514.3" y="138.12" width="1.63" height="21.87"/>
              <rect class="cls-1" x="515.94" y="138.12" width="1.63" height="21.87"/>
              <rect class="cls-1" x="517.57" y="138.12" width="1.63" height="21.87"/>
              <rect class="cls-1" x="519.21" y="138.12" width="1.63" height="21.87"/>
              <rect class="cls-1" x="520.84" y="138.12" width="1.63" height="21.87"/>
              <rect class="cls-1" x="522.48" y="138.12" width="1.63" height="21.87"/>
              <rect class="cls-1" x="524.11" y="138.12" width="1.63" height="21.87"/>
              <rect class="cls-1" x="525.74" y="138.12" width="1.63" height="21.87"/>
              <rect class="cls-1" x="527.38" y="138.12" width="1.63" height="21.87"/>
              <rect class="cls-1" x="529.01" y="138.12" width="1.63" height="21.87"/>
              <rect class="cls-1" x="530.65" y="138.12" width="1.63" height="21.87"/>
              <rect class="cls-1" x="532.28" y="138.12" width="1.63" height="21.87"/>
              <rect class="cls-1" x="533.92" y="138.12" width="1.63" height="21.87"/>
              <rect class="cls-1" x="535.55" y="138.12" width="1.63" height="21.87"/>
              <rect class="cls-1" x="537.19" y="138.12" width="1.63" height="21.87"/>
              <rect class="cls-1" x="538.82" y="138.12" width="1.63" height="21.87"/>
              <rect class="cls-1" x="540.46" y="138.12" width="1.63" height="21.87"/>
              <rect class="cls-1" x="542.09" y="138.12" width="1.63" height="21.87"/>
              <rect class="cls-1" x="543.73" y="138.12" width="1.63" height="21.87"/>
              <rect class="cls-1" x="545.36" y="138.12" width="1.63" height="21.87"/>
              <rect class="cls-1" x="546.99" y="138.12" width="1.63" height="21.87"/>
              <rect class="cls-1" x="548.63" y="138.12" width="1.63" height="21.87"/>
              <rect class="cls-1" x="550.26" y="138.12" width="1.63" height="21.87"/>
              <rect class="cls-1" x="551.9" y="138.12" width="1.63" height="21.87"/>
              <rect class="cls-1" x="553.53" y="138.12" width="1.63" height="21.87"/>
              <rect class="cls-1" x="555.17" y="138.12" width="1.63" height="21.87"/>
              <rect class="cls-1" x="556.8" y="138.12" width="1.63" height="21.87"/>
              <rect class="cls-1" x="558.44" y="138.12" width="1.63" height="21.87"/>
            </g>
          </g>
        </g>
      </g>
    </g>
  </g>
</svg>