<?xml version="1.0" encoding="UTF-8"?>
<svg id="Layer_2" data-name="Layer 2" xmlns="http://www.w3.org/2000/svg" viewBox="0 0 250 250">
  <defs>
    <style>
      .cls-1 {
        fill: #001741;
      }
    </style>
  </defs>
  <g id="Layer_1-2" data-name="Layer 1">
    <g>
      <path class="cls-1" d="M36.62,88.38C12.21,63.96,0,34.51,0,0h62.5c0,17.25,6.11,31.98,18.31,44.19,12.21,12.21,26.94,18.31,44.19,18.31s31.86-6.1,44.07-18.31c12.29-12.21,18.43-26.94,18.43-44.19h62.5c0,34.51-12.25,63.96-36.74,88.38-24.41,24.41-53.83,36.62-88.26,36.62s-63.97-12.21-88.38-36.62Z"/>
      <path class="cls-1" d="M0,250c0-34.42,12.21-63.84,36.62-88.26,24.41-24.49,53.87-36.74,88.38-36.74s63.84,12.25,88.26,36.74c24.49,24.41,36.74,53.83,36.74,88.26h-62.5c0-17.17-6.15-31.86-18.43-44.07-12.21-12.29-26.9-18.43-44.07-18.43s-31.98,6.15-44.19,18.43c-12.21,12.21-18.31,26.9-18.31,44.07H0Z"/>
    </g>
  </g>
</svg>