<?xml version="1.0" encoding="UTF-8"?>
<svg id="Layer_2" data-name="Layer 2" xmlns="http://www.w3.org/2000/svg" viewBox="0 0 491.01 653.99">
  <defs>
    <style>
      .cls-1, .cls-2 {
        fill: none;
      }

      .cls-2 {
        stroke: #00df84;
        stroke-miterlimit: 10;
      }

      .cls-3 {
        fill: #fff;
      }
    </style>
  </defs>
  <g id="Layer_1-2" data-name="Layer 1">
    <g>
      <rect class="cls-1" x=".66" width="490.34" height="490.81"/>
      <g>
        <path class="cls-3" d="M125.81,645.4h-10.32v-30.55h10.64c3.12,0,5.8.61,8.04,1.83,2.24,1.22,3.96,2.96,5.16,5.24,1.2,2.27,1.8,4.99,1.8,8.17s-.6,5.92-1.81,8.2-2.95,4.04-5.24,5.27c-2.28,1.23-5.04,1.84-8.28,1.84ZM120.3,641.37h5.24c2.43,0,4.45-.44,6.05-1.32s2.81-2.16,3.61-3.83c.8-1.68,1.2-3.72,1.2-6.14s-.4-4.43-1.19-6.1c-.79-1.67-1.97-2.94-3.54-3.8-1.57-.87-3.51-1.3-5.84-1.3h-5.54v22.49Z"/>
        <path class="cls-3" d="M146.74,645.4v-22.91h4.5v3.64h.25c.44-1.23,1.21-2.21,2.31-2.92,1.11-.71,2.36-1.07,3.76-1.07.29,0,.63,0,1.03.03.4.02.71.04.94.08v4.27c-.19-.05-.52-.11-1-.17-.48-.06-.95-.1-1.43-.1-1.1,0-2.08.22-2.93.66-.86.44-1.53,1.05-2.03,1.83s-.75,1.67-.75,2.66v13.99h-4.65Z"/>
        <path class="cls-3" d="M165.93,618.96c-.81,0-1.5-.26-2.08-.78-.58-.52-.86-1.15-.86-1.87s.29-1.37.86-1.89c.58-.52,1.27-.78,2.08-.78s1.5.26,2.08.78c.58.52.86,1.15.86,1.87s-.29,1.36-.86,1.89c-.58.52-1.27.78-2.08.78ZM163.58,645.4v-22.91h4.65v22.91h-4.65Z"/>
        <path class="cls-3" d="M194.93,622.49l-8.67,22.91h-4.98l-8.68-22.91h5l6.05,17.63h.25l6.04-17.63h5Z"/>
        <path class="cls-3" d="M209.61,645.86c-2.36,0-4.38-.48-6.08-1.45-1.7-.97-3-2.34-3.92-4.1-.92-1.76-1.38-3.83-1.38-6.21s.46-4.41,1.38-6.2,2.2-3.19,3.86-4.19c1.65-1,3.59-1.51,5.81-1.51,1.35,0,2.66.21,3.92.64,1.27.43,2.4,1.1,3.41,2.01,1.01.92,1.8,2.1,2.38,3.56.58,1.46.87,3.22.87,5.3v1.58h-19v-3.34h14.44c0-1.17-.25-2.21-.75-3.12-.5-.91-1.2-1.63-2.09-2.16-.9-.53-1.95-.79-3.15-.79-1.31,0-2.45.31-3.42.92s-1.72,1.41-2.24,2.39c-.52.98-.79,2.04-.79,3.18v2.61c0,1.53.28,2.83.85,3.91.57,1.07,1.36,1.89,2.37,2.45,1.02.56,2.21.84,3.56.84.88,0,1.69-.12,2.41-.37.73-.24,1.35-.61,1.88-1.1.53-.49.93-1.09,1.21-1.8l4.4.76c-.35,1.24-.98,2.33-1.89,3.26-.91.93-2.04,1.65-3.41,2.16s-2.92.77-4.66.77Z"/>
        <path class="cls-3" d="M229.7,631.8v13.6h-4.65v-22.91h4.47v3.73h.3c.55-1.21,1.41-2.19,2.59-2.92,1.18-.74,2.66-1.1,4.46-1.1,1.63,0,3.05.33,4.28.98s2.17,1.62,2.85,2.9c.67,1.28,1.01,2.87,1.01,4.76v14.57h-4.65v-14.04c0-1.66-.45-2.96-1.35-3.9-.9-.94-2.14-1.41-3.72-1.41-1.08,0-2.04.22-2.87.67-.83.45-1.49,1.1-1.98,1.96s-.72,1.9-.72,3.11Z"/>
        <path class="cls-3" d="M263.2,645.4v-30.55h11.67c2.26,0,4.13.36,5.62,1.07,1.48.71,2.59,1.67,3.33,2.88.74,1.21,1.11,2.57,1.11,4.08,0,1.27-.24,2.34-.73,3.21-.49.87-1.14,1.57-1.95,2.09-.81.52-1.71.9-2.68,1.14v.3c1.06.05,2.09.38,3.1.98s1.85,1.45,2.51,2.56,1,2.45,1,4.03-.38,2.96-1.14,4.2c-.76,1.24-1.94,2.22-3.52,2.94s-3.62,1.08-6.08,1.08h-12.22ZM268.01,628.07h6.44c1.08,0,2.05-.2,2.92-.6.87-.4,1.56-.96,2.07-1.68.51-.72.77-1.57.77-2.56,0-1.26-.46-2.32-1.38-3.18-.92-.86-2.34-1.28-4.25-1.28h-6.57v9.29ZM268.01,641.45h6.94c2.3,0,3.95-.43,4.95-1.28,1-.85,1.49-1.92,1.49-3.21,0-.96-.25-1.85-.76-2.66-.51-.81-1.23-1.45-2.17-1.92-.94-.48-2.05-.72-3.34-.72h-7.11v9.78Z"/>
        <path class="cls-3" d="M294.44,653.99c-.7,0-1.33-.05-1.9-.16s-1-.22-1.28-.34l1.12-3.65c.85.22,1.61.31,2.27.28.66-.03,1.25-.27,1.77-.72.51-.45.97-1.18,1.36-2.19l.58-1.52-8.75-23.21h4.98l6.05,17.78h.25l6.05-17.78h5l-9.85,25.97c-.46,1.19-1.04,2.21-1.74,3.04-.71.83-1.55,1.45-2.52,1.87-.98.42-2.11.63-3.39.63Z"/>
        <path class="cls-3" d="M330.99,645.4h-5.1l11.47-30.55h5.56l11.47,30.55h-5.1l-9.01-25h-.25l-9.03,25ZM331.85,633.44h16.56v3.88h-16.56v-3.88Z"/>
        <path class="cls-3" d="M363.78,614.85v30.55h-4.81v-30.55h4.81Z"/>
        <path class="cls-3" d="M373.47,645.68c-.85,0-1.58-.29-2.19-.87-.61-.58-.92-1.29-.92-2.11s.31-1.51.92-2.1c.61-.58,1.34-.87,2.19-.87s1.58.29,2.19.87c.61.58.92,1.28.92,2.1,0,.55-.14,1.05-.43,1.5-.29.45-.66.81-1.13,1.08s-.99.4-1.56.4Z"/>
      </g>
      <g>
        <path class="cls-3" d="M4.36,575.8v-35.76h6.86v35.76h-6.86Z"/>
        <path class="cls-3" d="M30.86,575.8v-35.76h5.36l20.48,26.5-2.7.53v-27.02h6.81v35.76h-5.41l-20.18-26.69,2.5-.53v27.22h-6.86Z"/>
        <path class="cls-3" d="M87.15,575.8v-30h-9.67v-5.76h26.04v5.76h-9.52v30h-6.86Z"/>
        <path class="cls-3" d="M120.15,575.8v-35.76h24.84v5.76h-17.98v9.17h16.98v5.81h-16.98v9.26h17.98v5.76h-24.84Z"/>
        <path class="cls-3" d="M162.47,575.8v-35.76h6.86v30h15.98v5.76h-22.84Z"/>
        <path class="cls-3" d="M202.19,575.8v-35.76h6.86v30h15.98v5.76h-22.84Z"/>
        <path class="cls-3" d="M241.9,575.8v-35.76h6.86v35.76h-6.86Z"/>
        <path class="cls-3" d="M286.13,576.38c-2.67,0-5.14-.46-7.41-1.39-2.27-.93-4.27-2.22-5.99-3.89-1.72-1.66-3.05-3.62-4.01-5.86-.95-2.24-1.43-4.69-1.43-7.34s.47-5.11,1.4-7.37c.93-2.26,2.25-4.21,3.93-5.86,1.69-1.65,3.66-2.93,5.91-3.84s4.73-1.37,7.44-1.37,5.07.43,7.19,1.3c2.12.86,3.91,2.01,5.38,3.43,1.47,1.42,2.52,2.98,3.16,4.68l-6.06,2.78c-.7-1.82-1.9-3.32-3.58-4.49-1.69-1.17-3.71-1.75-6.08-1.75s-4.4.53-6.19,1.58c-1.79,1.06-3.17,2.51-4.16,4.37-.99,1.86-1.48,4.03-1.48,6.53s.51,4.68,1.53,6.55c1.02,1.87,2.43,3.34,4.23,4.39,1.8,1.06,3.87,1.58,6.21,1.58,1.87,0,3.61-.36,5.21-1.08,1.6-.72,2.9-1.74,3.88-3.07.98-1.33,1.48-2.9,1.48-4.73v-2.74l3.11,2.59h-13.82v-5.52h17.53v3.6c0,2.75-.48,5.18-1.45,7.3-.97,2.11-2.28,3.89-3.93,5.33-1.65,1.44-3.51,2.51-5.58,3.22-2.07.7-4.21,1.06-6.41,1.06Z"/>
        <path class="cls-3" d="M321.39,575.8v-35.76h24.84v5.76h-17.98v9.17h16.98v5.81h-16.98v9.26h17.98v5.76h-24.84Z"/>
        <path class="cls-3" d="M363.71,575.8v-35.76h5.36l20.48,26.5-2.7.53v-27.02h6.81v35.76h-5.41l-20.18-26.69,2.5-.53v27.22h-6.86Z"/>
        <path class="cls-3" d="M430.92,576.38c-2.67,0-5.14-.46-7.41-1.39s-4.24-2.22-5.91-3.89c-1.67-1.66-2.98-3.62-3.93-5.86-.95-2.24-1.43-4.69-1.43-7.34s.47-5.11,1.4-7.37c.93-2.26,2.25-4.21,3.93-5.86,1.69-1.65,3.66-2.93,5.91-3.84s4.73-1.37,7.44-1.37,5.07.43,7.19,1.3c2.12.86,3.91,2.01,5.38,3.43,1.47,1.42,2.52,2.98,3.16,4.68l-6.11,2.78c-.7-1.82-1.89-3.32-3.56-4.49-1.67-1.17-3.69-1.75-6.06-1.75s-4.4.53-6.19,1.58c-1.79,1.06-3.17,2.51-4.16,4.37-.99,1.86-1.48,4.03-1.48,6.53s.49,4.68,1.48,6.55c.98,1.87,2.37,3.34,4.16,4.39,1.79,1.06,3.85,1.58,6.19,1.58s4.39-.58,6.06-1.75c1.67-1.17,2.85-2.65,3.56-4.44l6.11,2.74c-.63,1.7-1.69,3.26-3.16,4.68-1.47,1.42-3.26,2.57-5.38,3.43-2.12.86-4.52,1.3-7.19,1.3Z"/>
        <path class="cls-3" d="M464.62,575.8v-35.76h24.84v5.76h-17.98v9.17h16.98v5.81h-16.98v9.26h17.98v5.76h-24.84Z"/>
      </g>
      <line class="cls-2" x1=".72" y1="522.82" x2="490.95" y2="522.82"/>
      <line class="cls-2" x1=".72" y1="592.43" x2="490.95" y2="592.43"/>
      <g>
        <path class="cls-3" d="M71.85,173.68C23.95,125.78,0,67.98,0,.28h122.63c0,33.85,11.98,62.75,35.93,86.7,23.95,23.95,52.85,35.93,86.7,35.93s62.51-11.98,86.46-35.93c24.11-23.95,36.16-52.85,36.16-86.7h122.63c0,67.7-24.04,125.5-72.1,173.4-47.9,47.9-105.62,71.85-173.16,71.85s-125.5-23.95-173.4-71.85Z"/>
        <path class="cls-3" d="M0,490.79c0-67.54,23.95-125.26,71.85-173.16,47.9-48.06,105.7-72.09,173.4-72.09s125.26,24.03,173.16,72.09c48.06,47.9,72.1,105.62,72.1,173.16h-122.63c0-33.69-12.06-62.51-36.16-86.46-23.95-24.11-52.78-36.17-86.46-36.17s-62.75,12.06-86.7,36.17c-23.95,23.95-35.93,52.78-35.93,86.46H0Z"/>
      </g>
    </g>
  </g>
</svg>